<?xml version="1.0" encoding="UTF-8" standalone="no"?>
<!-- Created with Inkscape (http://www.inkscape.org/) -->

<svg
   width="289.71378mm"
   height="145.44899mm"
   viewBox="0 0 1094.9812 549.72848"
   version="1.1"
   id="svg1"
   inkscape:export-filename="logo.svg"
   inkscape:export-xdpi="209.69"
   inkscape:export-ydpi="209.69"
   inkscape:version="1.4 (e7c3feb100, 2024-10-09)"
   sodipodi:docname="flowtrails.svg"
   xmlns:inkscape="http://www.inkscape.org/namespaces/inkscape"
   xmlns:sodipodi="http://sodipodi.sourceforge.net/DTD/sodipodi-0.dtd"
   xmlns="http://www.w3.org/2000/svg"
   xmlns:svg="http://www.w3.org/2000/svg">
  <sodipodi:namedview
     id="namedview1"
     pagecolor="#ffffff"
     bordercolor="#000000"
     borderopacity="0.25"
     inkscape:showpageshadow="2"
     inkscape:pageopacity="0.0"
     inkscape:pagecheckerboard="0"
     inkscape:deskcolor="#d1d1d1"
     inkscape:document-units="mm"
     inkscape:zoom="0.75280258"
     inkscape:cx="1172.9503"
     inkscape:cy="587.80351"
     inkscape:window-width="3440"
     inkscape:window-height="1403"
     inkscape:window-x="0"
     inkscape:window-y="0"
     inkscape:window-maximized="1"
     inkscape:current-layer="layer1" />
  <defs
     id="defs1">
    <inkscape:path-effect
       effect="offset"
       id="path-effect5"
       is_visible="true"
       lpeversion="1.3"
       linejoin_type="miter"
       unit="mm"
       offset="1.2"
       miter_limit="4"
       attempt_force_join="false"
       update_on_knot_move="true" />
    <inkscape:path-effect
       effect="lattice2"
       gridpoint0="125.22455,172.56372"
       gridpoint1="401.58304,172.56372"
       gridpoint2="125.22455,311.30777"
       gridpoint3="401.58304,311.30777"
       gridpoint4="194.31417,172.56372"
       gridpoint5="332.49342,172.56372"
       gridpoint6="194.31417,311.30777"
       gridpoint7="332.49342,311.30777"
       gridpoint8x9="263.40379,172.56372"
       gridpoint10x11="263.40379,311.30777"
       gridpoint12="125.22455,207.24973"
       gridpoint13="401.58304,207.24973"
       gridpoint14="125.22455,276.62176"
       gridpoint15="401.58304,276.62176"
       gridpoint16="194.31417,207.24973"
       gridpoint17="332.49342,207.24973"
       gridpoint18="194.31417,276.62176"
       gridpoint19="332.49342,276.62176"
       gridpoint20x21="263.40379,207.24973"
       gridpoint22x23="263.40379,276.62176"
       gridpoint24x26="125.22455,241.93574"
       gridpoint25x27="401.58304,233.21581"
       gridpoint28x30="194.31417,199.49875"
       gridpoint29x31="332.49342,275.6528"
       gridpoint32x33x34x35="263.40379,247.74903"
       id="path-effect4"
       is_visible="true"
       lpeversion="1"
       horizontal_mirror="false"
       vertical_mirror="false"
       perimetral="false"
       live_update="true" />
    <rect
       x="118.88907"
       y="131.50858"
       width="1000.2623"
       height="664.84894"
       id="rect1" />
  </defs>
  <g
     inkscape:label="Layer 1"
     inkscape:groupmode="layer"
     id="layer1"
     transform="translate(-18.954717,-9.6324639)">
    <path
       id="text1"
       style="font-size:192px;text-align:start;writing-mode:lr-tb;direction:ltr;text-anchor:start;white-space:pre;shape-inside:url(#rect1);fill:#f9c51b;fill-opacity:1"
       d="m 193.30051,172.56372 c -0.744,0 -1.48392,0.0157 -2.21992,0.0478 -4.47838,0.25554 -8.96146,0.57294 -13.43984,0.94649 -4.47171,0.24873 -9.03233,0.55862 -13.63204,0.92613 -4.84805,0.24561 -9.74375,0.55483 -14.5918,0.92811 -4.78239,0.36823 -9.87362,0.76253 -14.78401,1.1603 -1.78937,0.13454 -3.65088,0.52101 -5.56825,1.1725 -1.92097,0.65271 -3.13513,1.87966 -3.6481,3.69132 -0.25596,1.03177 -0.25604,2.06103 0,3.06696 0.38407,0.99783 1.15197,2.95658 1.15197,2.95658 0.51187,0.96101 0.96029,1.91115 1.34416,2.8536 3.2,8.14531 4.86427,15.6615 4.99227,24.45258 0.12745,8.63575 -0.0635,17.85973 -0.57598,27.7765 -0.25611,4.95408 -0.76818,15.1381 -0.76818,15.1381 -0.25603,5.11976 -0.76818,15.45663 -0.76818,15.45663 -0.128,2.7865 -0.31999,5.59159 -0.57599,8.38679 -0.25616,2.79693 -0.83179,5.57178 -1.72795,8.24766 -0.51223,1.682 -1.08773,3.2748 -1.72796,4.77936 -0.64004,1.5041 -1.08812,2.95491 -1.34416,4.38316 -0.50979,3.3545 -0.002,5.75562 1.53636,7.28752 1.5371,1.5308 3.71093,2.49798 6.52803,2.88275 2.81218,0.3845 5.82737,0.38468 9.02355,-0.0159 3.32588,-0.2691 6.40248,-0.67421 9.21636,-1.22573 2.95536,-0.69107 5.23645,-1.18613 6.91181,-1.47581 2.43047,-0.57166 4.80154,-1.36624 7.10401,-2.40815 2.43189,-1.19041 4.03218,-3.1483 4.80007,-6.01217 0.76776,-2.54614 0.64045,-5.18254 -0.38379,-7.84072 -0.90009,-2.84097 -1.78824,-5.52114 -2.68833,-8.0641 -2.56,-7.25707 -3.90389,-14.99609 -4.03189,-22.92377 -0.12813,-7.93576 -8e-5,-15.40908 0.38379,-22.1994 2.94457,1.22934 8.83196,4.21433 8.83196,4.21433 3.07273,1.41082 9.21636,4.68427 9.21636,4.68427 0.64004,0.46681 1.34369,0.93921 2.11174,1.41954 0.76857,0.3203 1.59955,0.4052 2.49613,0.25771 1.79458,-0.2952 3.06911,-1.61644 3.8397,-3.92898 0.89603,-2.29992 1.40832,-4.46366 1.53636,-6.51345 0.6424,-10.43203 -0.003,-19.09546 -1.92015,-26.21803 -0.128,-0.50903 -0.32,-1.0132 -0.57599,-1.51166 -0.25594,-0.49834 -0.57584,-0.94249 -0.95977,-1.33471 -1.14582,-0.98038 -2.63047,-1.33018 -4.41628,-1.04914 -1.78943,0.2816 -3.26626,0.87496 -4.41568,1.779 -1.15142,0.90561 -2.11312,1.98877 -2.88053,3.26426 -0.76846,1.17411 -1.72747,2.34858 -2.87992,3.53477 -1.02697,1.06926 -2.42851,1.9235 -4.22348,2.58734 -1.6698,0.65028 -3.13049,0.6247 -4.41629,-0.0888 -1.02425,-0.63648 -1.5997,-1.48748 -1.72795,-2.55712 -0.128,-1.17642 -0.1922,-2.27604 -0.1922,-3.30891 0.14528,-2.19131 0.30288,-4.45308 0.48013,-6.85178 0.15969,-2.16105 0.28805,-3.7953 0.28805,-3.7953 0.38319,-3.29929 0.70459,-6.36717 0.95978,-9.4407 0,-0.34101 0,-1.02684 0,-1.02684 0.128,-0.35026 0.31998,-0.70487 0.57598,-1.06257 0.38414,-0.3634 0.89622,-0.64483 1.53636,-0.84177 0.64001,-0.1969 1.27954,-0.34805 1.91955,-0.45406 4.47911,-0.74188 8.89713,-0.35312 13.24824,1.03811 4.4677,1.3872 7.75664,3.45904 9.79234,6.17279 0.63978,0.90859 1.21617,1.8662 1.72796,2.88109 0.5117,1.01472 1.15183,1.973 1.91954,2.87468 0.768,0.98823 1.79211,1.88818 3.07212,2.70061 1.41052,0.82298 2.87775,1.3166 4.41628,1.45829 2.95213,0.17873 4.9835,-0.7619 6.14364,-2.83049 1.152,-2.14455 1.72795,-4.19733 1.72795,-6.19529 0,-1.42303 0,-4.30124 0,-4.30124 0.128,-1.47978 0.1922,-2.98492 0.1922,-4.54439 0.12804,-1.83099 1.7e-4,-3.74382 -0.38379,-5.78735 -0.25598,-2.04191 -1.21595,-3.97023 -2.87992,-5.71495 -2.06008,-1.98935 -4.66011,-3.20106 -7.87219,-3.45517 -2.30704,-0.28514 -4.5692,-0.42908 -6.80424,-0.42908 l 0,-5e-5 m 39.43046,4.86223 c -0.6216,0.0151 -1.24294,0.0572 -1.86455,0.12552 -0.93242,0.13823 -1.90305,0.27545 -2.91316,0.41085 -0.93262,0.0655 -1.90287,0.16516 -2.91316,0.29855 -1.16613,0.13255 -2.36863,0.33295 -3.61245,0.59769 -1.16664,0.1971 -2.17391,0.66563 -3.02981,1.38289 -0.93224,0.64956 -1.43752,1.54895 -1.51521,2.6667 -0.0777,1.05558 0.38864,1.81246 1.39856,2.31883 0.31067,0.18807 0.66027,0.34725 1.04862,0.47796 0.38854,0.0709 0.77672,0.20184 1.16527,0.39327 0.85479,0.38524 1.39855,1.00269 1.63185,1.83755 0.23306,0.834 0.34934,1.6545 0.34934,2.46044 -0.0343,2.51329 -0.1115,7.96089 -0.14582,10.47418 -0.0484,3.49569 -0.0875,6.47445 -0.0875,6.47445 -0.0788,5.95536 -0.15387,12.24939 -0.23269,19.86111 -0.0777,2.6414 0.11649,5.45551 0.58263,8.43357 0.46631,2.89659 1.43692,5.70247 2.91316,8.34647 1.48021,2.6511 3.72497,4.81519 6.7589,6.47617 1.7111,0.95728 3.45492,1.43229 5.2437,1.44466 1.86477,0.0282 3.45675,-0.46811 4.77771,-1.46566 1.00998,-0.72247 1.6704,-1.59013 1.98119,-2.61016 0.15537,-0.55186 0.19373,-1.12678 0.11604,-1.72632 -0.0777,-1.01485 -0.38817,-2.07706 -0.93197,-3.1876 -0.54373,-1.11043 -1.04854,-2.20591 -1.5146,-3.28445 -1.55333,-3.19128 -2.642,-6.41242 -3.26311,-9.59483 -0.5437,-3.24157 -0.89334,-6.28366 -1.04861,-9.13773 -0.15542,-3.28006 -0.15534,-6.38573 0,-9.36818 0.15575,-3.05614 0.31023,-5.96156 0.46598,-8.82407 0.45543,-5.74265 0.94315,-11.72785 1.39857,-17.83673 0.15539,-1.06215 0.15537,-2.18019 0,-3.35605 -0.15545,-1.17658 -0.69953,-2.17095 -1.63185,-2.96142 -0.93387,-0.72041 -2.01789,-1.08619 -3.2625,-1.09189 -0.6216,-0.0388 -1.24297,-0.0509 -1.86455,-0.0358 0,0 0,-1e-5 0,-1e-5 z m 51.87063,20.937 c -3.23508,-0.23772 -6.42225,-0.0297 -9.56992,0.56726 -4.18827,0.79437 -8.00858,2.26898 -11.41998,4.31769 -4.18638,2.53394 -7.31156,5.59949 -9.32272,9.36035 -1.94217,3.79151 -2.83525,7.92374 -2.67987,12.67139 0.15537,4.67403 1.2816,9.50523 3.37915,14.42188 2.10064,4.84522 5.12431,9.24726 9.08943,13.02351 4.05133,3.80173 8.88367,6.34179 14.56642,7.67557 3.95579,0.99792 7.81328,1.1593 11.53601,0.53728 3.8001,-0.68306 7.27043,-1.97348 10.37134,-3.87902 3.18434,-1.97168 5.86641,-4.45155 8.04082,-7.48839 1.63154,-2.25939 2.87382,-4.78397 3.72849,-7.5837 0.93224,-2.71057 1.43752,-5.49672 1.5152,-8.33289 0.0777,-1.9162 -2.3e-4,-3.82886 -0.23329,-5.72956 -0.15536,-1.89371 -0.42689,-3.81506 -0.81532,-5.75799 -0.3884,-1.50855 -0.81583,-3.02775 -1.28192,-4.55289 -0.46618,-1.52545 -1.04865,-2.97482 -1.74789,-4.34511 -1.16608,-2.19718 -2.60184,-4.09982 -4.31172,-5.70725 -1.6324,-1.68956 -3.4172,-3.11408 -5.36034,-4.28137 -3.81301,-2.33194 -7.87909,-3.80779 -12.23589,-4.5289 -1.08768,-0.18001 -2.17004,-0.30865 -3.248,-0.38786 z m 105.21175,-0.1713 c -1.8673,0.23053 -3.53215,0.95079 -5.01101,2.24378 -1.0104,0.83966 -1.70833,1.90647 -2.09723,3.20494 -0.31073,1.28336 -0.31077,2.48333 0,3.57383 0.38885,0.99902 1.16481,1.52028 2.33053,1.55514 0.46615,0.0441 0.93241,0.0474 1.39856,0.0105 0.54361,-0.13012 1.00971,-0.0576 1.39795,0.21348 0.46613,0.32545 0.62196,0.83259 0.46659,1.53675 -0.0777,0.60963 -0.23354,1.2055 -0.46659,1.78886 -1.24308,3.08747 -3.72848,9.47657 -3.72848,9.47657 -1.16762,3.12535 -2.32879,6.31627 -3.49641,9.57733 -1.32012,-3.32418 -2.99099,-7.4995 -4.31111,-10.82368 -1.39864,-3.73361 -4.19508,-11.58552 -4.19508,-11.58552 -0.46606,-1.32999 -1.08774,-2.60973 -1.86455,-3.84858 -0.69866,-1.2475 -1.70965,-1.97844 -3.02981,-2.18639 -1.86635,-0.40863 -3.49412,0.31675 -4.89435,2.25974 -1.39862,1.85431 -2.52435,3.82965 -3.37915,5.91774 -3.77341,9.69675 -7.2198,19.93177 -10.13866,29.30259 -2.40822,-3.68079 -3.923,-8.08373 -4.54441,-13.16527 -0.54391,-5.08735 -0.11635,-10.20206 1.28191,-15.20511 0.23305,-0.90877 0.42726,-1.81677 0.58263,-2.7236 0.23308,-0.91015 0.23304,-1.81047 0,-2.7034 -0.46615,-1.60575 -1.515,-2.60824 -3.14646,-3.02146 -1.5543,-0.41523 -3.0678,-0.617 -4.54441,-0.59934 -2.72463,0.12364 -5.47181,0.26582 -8.27411,0.426 -2.7195,0.0696 -8.15686,0.13206 -8.15686,0.13206 -0.69957,-0.0184 -1.55352,0.0929 -2.56382,0.33054 -0.9323,0.15001 -1.82527,0.52281 -2.67987,1.11656 -0.77687,0.50712 -1.16527,1.2951 -1.16527,2.36863 0,1.25245 0.3884,2.16542 1.16527,2.74019 0.85445,0.48901 1.78668,0.84615 2.79651,1.06875 1.08793,0.22602 1.98098,0.52936 2.68048,0.91469 0.93247,0.48367 1.66983,1.27277 2.21388,2.36932 0.54385,1.00624 1.01008,2.09711 1.39856,3.27162 3.09723,8.9616 5.99219,17.12568 9.08943,25.20933 1.76034,4.43355 3.67818,9.06554 5.82656,13.93793 1.93924,4.39809 3.49557,7.69453 3.49557,7.69453 0.15536,0.41341 0.34957,0.82247 0.58263,1.22769 0.233,0.33519 0.5436,0.59493 0.93197,0.77811 1.16329,0.5487 2.29415,0.29224 3.37975,-0.78298 1.08742,-1.07701 1.90357,-2.22456 2.44718,-3.43018 1.00605,-2.28897 2.12117,-4.88578 3.35034,-7.84456 1.11708,-2.68895 2.01,-4.91443 2.01,-4.91443 1.79313,-4.52764 3.52826,-9.1401 5.2437,-13.85541 2.50455,8.13396 5.73042,15.02666 9.78871,21.36451 0.3885,0.50661 1.16527,1.51718 1.16527,1.51718 0.46586,0.48515 1.04897,0.78985 1.7479,0.90997 1.00926,0.26593 2.09846,0.0149 3.2631,-0.77645 1.24293,-0.89057 2.17508,-1.90959 2.79652,-3.0358 0.69907,-1.22811 1.20396,-2.44804 1.5146,-3.64363 0.31072,-1.27387 0.5829,-2.5387 0.81593,-3.79066 1.16331,-5.23753 2.72088,-10.48004 4.66106,-15.60193 1.94089,-5.2003 4.04128,-10.36307 6.29292,-15.29385 1.87656,-4.10941 4.72649,-10.4134 6.29231,-13.87812 0.3883,-0.82095 0.69964,-1.67168 0.93257,-2.55271 0.23306,-0.8815 0.11618,-1.5953 -0.34994,-2.17821 -0.54254,-0.68856 -1.39919,-1.07787 -2.56322,-1.16554 -1.08805,-0.10373 -2.17505,-0.12945 -3.26311,-0.0648 -1.78785,0.12561 -3.61144,0.33028 -5.47698,0.6328 z m -109.83656,13.20168 c 2.72642,0.48594 5.42338,1.55853 8.10609,3.27405 3.65548,2.21648 6.17168,5.29254 7.57423,9.23304 0.93223,2.4535 1.32065,4.94958 1.16526,7.4531 -0.1554,2.50381 -0.50478,4.86416 -1.04862,7.08101 -0.54389,1.73905 -1.24319,3.38988 -2.09784,4.95518 -0.77655,1.5005 -1.94236,2.64166 -3.49579,3.4234 -1.00959,0.50032 -2.1365,0.78003 -3.37915,0.83712 -1.24286,-0.02 -2.48623,-0.0846 -3.72909,-0.19283 -1.63136,-0.19039 -3.30134,-0.51371 -5.0104,-0.97111 -1.63174,-0.44024 -3.22426,-1.15119 -4.77832,-2.13338 -2.71931,-1.64085 -4.6997,-3.79393 -5.94297,-6.4156 -1.24283,-2.62074 -1.98098,-5.33791 -2.21388,-8.13181 -0.23309,-2.79627 -0.1551,-5.33924 0.23329,-7.6597 0.23308,-1.22731 0.54352,-2.43648 0.93197,-3.6335 0.38837,-1.27164 0.89379,-2.41171 1.51521,-3.42603 0.9314,-1.40779 2.09827,-2.42081 3.4958,-3.03496 0.85429,-0.47266 1.78685,-0.75165 2.79651,-0.83108 1.00982,-0.15656 2.05897,-0.19773 3.14646,-0.11936 0.91288,0.0337 1.82323,0.13062 2.73124,0.29244 0,10e-6 0,2e-5 0,2e-5 z m 32.37903,55.19622 c -0.77961,-0.0736 -1.53633,-0.0449 -2.27009,0.0879 -0.73381,0.13278 -1.37518,0.39743 -1.92559,0.79559 -0.32098,0.25644 -0.59632,0.53804 -0.8256,0.84499 -0.22926,0.26545 -0.45854,0.55079 -0.6878,0.85697 -0.22925,0.4303 -0.43548,0.8626 -0.61889,1.29646 -0.18341,0.43386 -0.29804,0.89484 -0.3439,1.38266 -0.0459,1.02138 0.25258,1.92993 0.8945,2.72042 0.64192,0.79047 1.46686,1.44806 2.47558,1.97076 1.05444,0.48629 2.15566,0.84718 3.3018,1.0852 1.14568,0.19831 2.15561,0.26191 3.02619,0.19675 0.55011,-0.0453 1.03131,-0.13535 1.44388,-0.26876 0.0459,-0.0366 0.11499,-0.0721 0.20671,-0.10619 0.32093,-0.0995 0.59576,-0.24104 0.82499,-0.42457 0.22925,-0.18354 0.43549,-0.38827 0.6189,-0.61393 1.14615,-1.19436 1.83425,-2.57701 2.06339,-4.15814 0.0917,-0.59296 0.0693,-1.19452 -0.0683,-1.80585 -0.0917,-0.6491 -0.39011,-1.2122 -0.8945,-1.69099 -0.36686,-0.30759 -0.80226,-0.54001 -1.30669,-0.69743 -0.45852,-0.19511 -0.91707,-0.37185 -1.37559,-0.52951 0.29046,0.0706 -2.55994,-0.62327 -2.26949,-0.55264 -0.73373,-0.22755 -1.4899,-0.35758 -2.26949,-0.3897 z m 21.8711,2.11719 c -0.36682,0.0115 -0.73378,0.0369 -1.1006,0.0766 -0.55019,0.0797 -1.12344,0.1571 -1.71949,0.23172 -0.55023,0.0348 -1.12342,0.0876 -1.71949,0.1574 -0.68778,0.0681 -1.39867,0.17234 -2.13229,0.31293 -0.68798,0.10164 -1.28322,0.36358 -1.78779,0.78708 -0.55022,0.38161 -0.84864,0.93073 -0.8945,1.64465 -0.0459,0.67416 0.22953,1.17868 0.8256,1.51351 0.1834,0.12425 0.38964,0.22919 0.6189,0.31472 0.22927,0.0462 0.45852,0.13127 0.68779,0.25527 0.50441,0.24925 0.8252,0.64857 0.9628,1.19823 0.13755,0.54951 0.2067,1.09506 0.2067,1.63765 -0.0459,3.83469 -0.1378,11.35675 -0.1378,11.35675 0.0317,-2.5864 -0.16949,14.11415 -0.1378,11.52774 -0.0459,1.41543 0.0688,2.8566 0.3439,4.33123 0.27509,1.4324 0.84833,2.75007 1.71949,3.93836 0.87183,1.18919 2.20012,2.07 3.98898,2.61551 1.00995,0.31847 2.03928,0.38697 3.09508,0.20451 1.10115,-0.18237 2.0399,-0.61481 2.82009,-1.28816 0.59608,-0.49335 0.98548,-1.02711 1.16889,-1.59926 0.0917,-0.30807 0.11475,-0.61438 0.0689,-0.91914 -0.0459,-0.52247 -0.22903,-1.04009 -0.54999,-1.55316 -0.32096,-0.51306 -0.61879,-1.02161 -0.8939,-1.52618 -0.91693,-1.4713 -1.55948,-3.01367 -1.92619,-4.62324 -0.32097,-1.65046 -0.52718,-3.24721 -0.6189,-4.80527 -0.0917,-1.79161 -0.0917,-3.55713 0,-5.3137 0.0101,-0.19765 0.2649,-5.11373 0.275,-5.31137 -0.27909,3.66968 1.10468,-14.62219 0.8256,-10.9525 0.0917,-0.63324 0.0917,-1.28782 0,-1.96364 -0.0917,-0.67615 -0.41254,-1.22999 -0.9628,-1.66253 -0.55049,-0.39246 -1.19229,-0.58464 -1.92619,-0.5779 -0.36683,-0.0168 -0.73317,-0.0193 -1.09999,-0.008 z m -125.70786,-16.2337 c -4.16351,-0.4543 -8.3141,-0.65404 -12.46615,-0.56398 -0.77945,0.01 -1.5359,0.084 -2.26949,0.22248 -0.73343,0.0796 -1.4447,0.34112 -2.13229,0.78666 -1.05438,0.72661 -1.85728,1.80343 -2.40729,3.23444 -0.50436,1.43279 -0.80219,3.03876 -0.89389,4.81895 -0.0917,1.71882 -0.0687,3.42446 0.0689,5.1096 0.0917,0.99882 0.22938,1.97057 0.4128,2.9134 0.22932,0.94386 0.64166,1.70392 1.23779,2.28114 0.68798,0.70478 1.46699,0.91068 2.33839,0.62158 0.91712,-0.28781 1.67332,-0.82647 2.26949,-1.61613 0.64196,-0.72549 1.16958,-1.57509 1.58229,-2.54957 0.41271,-1.03652 0.84814,-2.03492 1.30669,-2.99516 0.41266,-0.96258 0.93977,-1.82043 1.5817,-2.57222 0.64177,-0.81255 1.376,-1.27706 2.20119,-1.39771 0.45838,-0.0872 0.77951,0.0279 0.96279,0.34358 0.0917,0.18814 0.1372,0.46403 0.1372,0.82719 0.13497,4.24186 0.41562,13.2128 0.5506,17.45466 0.22998,5.81948 0.43477,11.51801 0.61889,16.92805 0.0459,1.43315 0.0228,2.84052 -0.0689,4.21666 -0.0459,1.3765 -0.36672,2.60936 -0.96279,3.71196 -0.77934,1.36472 -1.30672,2.58799 -1.58169,3.6764 -0.27507,1.0393 -0.13807,1.85028 0.41219,2.46045 0.54871,0.60844 1.74424,0.90528 3.57679,0.90528 3.33629,0.0457 6.63651,-0.4314 9.83525,-1.46868 0.45847,-0.18926 0.91712,-0.40312 1.37559,-0.64244 0.45844,-0.23929 0.80252,-0.57586 1.0317,-1.01441 0.13755,-0.24369 0.22914,-0.53797 0.275,-0.88426 0.0459,-0.34635 -2.5e-4,-0.6956 -0.13781,-1.04818 -0.13762,-0.35262 -0.41279,-1.06635 -0.41279,-1.06635 -1.65123,-3.84167 -2.63576,-8.24311 -2.95729,-13.11764 -0.27509,-4.92193 -0.43527,-10.01388 -0.48109,-15.07337 0,-1.80711 0,-5.41827 0,-5.41827 0,-1.80356 0,-5.38829 0,-5.38829 0,-0.65521 0.0224,-1.30628 0.0683,-1.95328 0.0917,-0.64217 0.32098,-1.14945 0.68779,-1.52054 0.50421,-0.47329 1.07774,-0.55244 1.71949,-0.24302 0.68757,0.2563 1.23814,0.70266 1.65059,1.33559 0.45849,0.63862 0.80248,1.38042 1.0317,2.2267 0.22929,0.78797 0.45851,1.54696 0.6878,2.27689 0.55057,1.64684 1.4209,3.08902 2.61339,4.32169 1.23851,1.23743 2.49851,1.61752 3.78288,1.17151 0.68772,-0.276 1.26102,-0.79146 1.71949,-1.54334 0.45851,-0.75194 0.77939,-1.57116 0.96279,-2.46017 0.1834,-0.889 0.25256,-1.78849 0.2067,-2.70073 0,-0.96274 -0.0231,-1.89699 -0.0689,-2.80362 -0.0459,-1.07539 -0.16049,-2.15629 -0.3439,-3.24405 -0.18336,-1.08748 -0.55042,-2.0607 -1.10059,-2.92452 -0.73295,-1.16924 -1.67448,-1.98755 -2.82009,-2.44825 -1.10028,-0.50894 -2.2009,-0.87747 -3.30118,-1.10275 -4.17422,-0.92208 -8.33725,-1.62974 -12.50002,-2.08393 0,0 -1e-5,0 -1e-5,0 z m 153.66577,23.26029 c -1.71893,0.31519 -3.33644,0.92875 -4.84903,1.82859 -1.10036,0.62905 -2.08618,1.37191 -2.95728,2.23083 -1.10039,1.15374 -1.94847,2.42355 -2.54449,3.82416 -0.59605,1.40069 -0.82537,2.80957 -0.68779,4.24842 0.18328,1.94295 1.00845,3.71888 2.47558,5.34929 1.5123,1.5884 3.34815,2.70355 5.50237,3.30391 0.96284,0.26221 1.9486,0.4639 2.95729,0.60246 1.05456,0.0955 2.04027,0.31825 2.95728,0.67346 0.96298,0.35395 1.78832,0.92725 2.47619,1.72956 0.68776,0.75909 0.96316,1.62349 0.8256,2.58646 -0.18357,1.22666 -0.91719,2.13701 -2.20119,2.71842 -1.28417,0.53749 -2.56702,0.80808 -3.85118,0.81443 -0.41268,0.002 -0.82571,-0.0181 -1.2384,-0.0598 -0.41269,-0.0856 -0.80205,-0.21493 -1.16889,-0.38727 -0.68777,-0.38846 -1.16938,-0.9276 -1.44449,-1.61228 -0.2751,-0.72757 -0.45831,-1.49141 -0.55,-2.29176 -0.0917,-0.84255 -0.2755,-1.61349 -0.5506,-2.31427 -0.32102,-0.94923 -0.9396,-1.73667 -1.85669,-2.36753 -0.9168,-0.63065 -1.94902,-1.02768 -3.09508,-1.20219 -1.09958,-0.17547 -2.17856,-0.0718 -3.23228,0.30602 -1.28333,0.46183 -2.24759,1.17208 -2.88899,2.1431 -0.59607,0.97129 -0.91694,2.04605 -0.9628,3.23993 -0.0458,1.15273 0.20648,2.25906 0.7567,3.31938 0.82527,1.73904 2.20047,3.18619 4.12618,4.29878 1.92909,1.06993 3.84827,1.77507 5.77737,2.0949 2.24977,0.41107 4.51344,0.43447 6.80907,0.0684 2.29081,-0.41096 4.518,-0.95801 6.67126,-1.63914 1.83214,-0.59015 3.62413,-1.38573 5.36457,-2.38727 1.74282,-1.04814 2.93441,-2.48454 3.57679,-4.31024 0.50427,-1.27784 0.59605,-2.62264 0.275,-4.01297 -0.27523,-1.39221 -0.8482,-2.60518 -1.7195,-3.62903 -0.82597,-1.02703 -1.85644,-1.84574 -3.09508,-2.46455 -1.23801,-0.61849 -2.52146,-1.04705 -3.85118,-1.29956 -0.96284,-0.19168 -1.94919,-0.33777 -2.95789,-0.44099 -1.00849,-0.14515 -1.94854,-0.4411 -2.81948,-0.88131 -0.82509,-0.4431 -1.46731,-1.09993 -1.92559,-1.96511 -0.41271,-0.90965 -0.36713,-1.76269 0.1372,-2.57733 0.27508,-0.34809 0.59601,-0.64036 0.96279,-0.87725 0.36677,-0.27779 0.75687,-0.49827 1.1695,-0.66089 1.09992,-0.43349 2.24735,-0.61687 3.43898,-0.53581 1.19249,0.0811 2.26905,0.40231 3.23228,0.97976 0.96329,0.53471 1.67337,1.27518 2.13229,2.22675 0.13763,0.28957 0.4128,0.87093 0.4128,0.87093 0.18335,0.24309 0.43519,0.39402 0.7561,0.45064 0.45864,0.0434 0.82535,-0.16742 1.10059,-0.63625 0.27511,-0.51267 0.43585,-1.01617 0.4817,-1.50719 0.36683,-2.91273 0.38924,-5.80553 0.0683,-8.62441 0,-0.30958 -0.0455,-0.58898 -0.1372,-0.83783 -0.0459,-0.30127 -0.16048,-0.56763 -0.3439,-0.79893 -0.18347,-0.18723 -0.43566,-0.29519 -0.7567,-0.32476 -0.32094,-0.0735 -0.6188,0.003 -0.89389,0.22592 -0.22925,0.21518 -0.41306,0.48683 -0.5506,0.81461 -0.0917,0.27656 -0.25184,0.5206 -0.48109,0.73141 -0.36689,0.36336 -0.80226,0.47405 -1.3067,0.33785 -0.50426,-0.13616 -0.93998,-0.30464 -1.30669,-0.50417 -1.88097,-0.94868 -4.03398,-1.28436 -6.46517,-1.08375 -0.59602,0.0382 -1.18085,0.11045 -1.75394,0.21548 0,0 0,1e-5 0,1e-5 z m -48.45401,3.70351 c -0.5502,-0.0336 -1.12285,-0.05 -1.71889,-0.0496 -1.69548,0.0468 -3.41715,0.14174 -5.15847,0.28901 -0.36683,0.0121 -0.73379,0.0642 -1.1006,0.15616 -0.321,0.0553 -0.5957,0.17416 -0.82499,0.35763 -0.22927,0.22375 -0.36695,0.4952 -0.4128,0.8142 -0.0458,0.52049 0.11428,0.99646 0.48109,1.4242 0.22927,0.33768 0.55072,0.62026 0.9634,0.84759 0.41265,0.22732 0.82514,0.43315 1.23779,0.61796 0.18341,0.0512 0.36659,0.12181 0.55,0.21236 0.1834,0.0905 0.3211,0.21799 0.4128,0.38218 0.0917,0.12448 0.1378,0.32562 0.1378,0.60356 0.18341,1.83672 0.18341,3.66054 0,5.493 -0.13753,1.83396 -0.25221,3.70457 -0.3439,5.62239 0,1.18481 0.0224,2.52213 0.0683,4.02713 0.0917,1.46389 0.34402,2.90739 0.7567,4.3311 0.45852,1.42393 1.14634,2.69912 2.06339,3.81245 0.91761,1.11403 2.17749,1.90792 3.78288,2.36376 0.87197,0.22804 1.78751,0.25102 2.75118,0.0685 0.96343,-0.18244 1.76483,-0.59214 2.40729,-1.22159 0.27512,-0.26956 0.50438,-0.58264 0.6878,-0.93813 0.18341,-0.39991 0.275,-0.77511 0.275,-1.12615 -0.0917,-0.65812 -0.4126,-1.20027 -0.9628,-1.63264 -0.50436,-0.43229 -0.98598,-0.88329 -1.44449,-1.35332 -0.87122,-0.81216 -1.44434,-1.78659 -1.71949,-2.91126 -0.27512,-1.12454 -0.43585,-2.213 -0.4817,-3.26921 -0.32082,-4.26479 -0.0457,-8.33495 0.8256,-12.33334 0.0917,-0.53917 0.27499,-1.61598 0.27499,-1.61598 0.13756,-0.5753 0.16061,-1.13548 0.0689,-1.68224 -0.0917,-0.58553 -0.29793,-1.13815 -0.61889,-1.65989 -0.32096,-0.52173 -0.77954,-0.93586 -1.3756,-1.24314 -0.50437,-0.2239 -1.03207,-0.35317 -1.58229,-0.38676 z m -74.27903,-8.02635 c -0.48144,-0.0919 -0.96306,-0.14274 -1.4445,-0.1519 -0.91696,-0.0669 -1.85726,-0.10738 -2.82009,-0.12065 -0.50428,-0.01 -1.03154,0.117 -1.58169,0.38374 -0.55022,0.21085 -0.82499,0.62705 -0.82499,1.2453 0,0.78687 0.29783,1.38421 0.8939,1.78794 0.64184,0.35279 1.21521,0.78025 1.7195,1.28131 0.0917,0.0659 0.18329,0.15983 0.27499,0.28114 0.55018,0.67219 0.89417,1.48488 1.0317,2.4406 0.13755,0.95598 0.22914,1.87758 0.275,2.76623 0.22909,7.31328 0.25245,14.57457 0.0689,21.31999 0,0.40552 -0.0461,0.83411 -0.1378,1.28451 -0.0459,0.45079 -0.1605,0.87292 -0.3439,1.26823 -0.32093,0.49352 -0.73346,0.9838 -1.23779,1.4706 -0.4585,0.48695 -0.84856,0.97112 -1.1695,1.45118 -0.27512,0.43212 -0.34364,0.86102 -0.2061,1.28616 0.18343,0.42523 0.75659,0.82309 1.71949,1.19409 0.91572,0.37045 1.95011,0.50808 3.09509,0.41611 1.19177,-0.0461 2.36136,-0.18426 3.50728,-0.41548 1.14618,-0.23126 2.20121,-0.46343 3.16398,-0.69607 0.4585,-0.093 0.9171,-0.20946 1.3756,-0.3494 0.45844,-0.18667 0.80251,-0.4904 1.03169,-0.91412 0.27512,-0.51804 0.3206,-1.06365 0.1372,-1.638 -0.18342,-0.57441 -0.38963,-1.12933 -0.6189,-1.66442 -1.05471,-2.43249 -1.65011,-5.06839 -1.78778,-7.88971 -0.13756,-2.86996 -0.16061,-5.7736 -0.0689,-8.66805 0,-0.79097 0.023,-1.58266 0.0689,-2.37364 0.0917,-0.78769 0.25182,-1.51758 0.48109,-2.18752 0.27518,-0.7193 0.68749,-1.31846 1.23779,-1.79557 0.5504,-0.53 1.16933,-0.78503 1.8573,-0.77048 0.22925,1.22648 0.50462,2.45266 0.82559,3.67448 0.32101,1.16996 0.77887,2.29062 1.37499,3.35823 0.59625,1.01642 1.35287,1.87789 2.27009,2.58667 0.96276,0.71106 1.99477,1.03603 3.09509,0.99229 1.51212,-0.0726 2.75207,-0.82826 3.71398,-2.24497 0.96281,-1.41805 1.58164,-2.91563 1.85669,-4.50984 0.13755,-0.77278 0.2061,-1.54996 0.2061,-2.33427 0.0458,-0.82888 -0.0688,-1.62431 -0.3439,-2.39078 -0.59534,-1.68313 -1.69712,-2.97644 -3.30119,-3.87715 -1.55878,-0.89524 -3.14105,-1.56126 -4.74568,-1.97914 -1.51256,-0.40555 -3.09556,-0.59532 -4.74568,-0.55222 -1.60571,-0.003 -2.93347,0.5854 -3.98898,1.79225 -0.4125,-1.06166 -1.03151,-1.96817 -1.85668,-2.71947 -0.82518,-0.75129 -1.6971,-1.29998 -2.61399,-1.64004 -0.48144,-0.17313 -0.96246,-0.30633 -1.44389,-0.39823 0,0 0,7e-5 0,7e-5 z m 41.85104,5.72288 c -1.30656,-0.11598 -2.62564,-0.0576 -3.95514,0.18635 -2.66215,0.48847 -4.85723,1.64646 -6.60236,3.52954 -0.82551,0.85117 -1.44384,1.92432 -1.85668,3.21561 -0.41273,1.29094 -0.34405,2.53771 0.2061,3.71427 0.36694,0.73739 0.91683,1.34088 1.65059,1.81061 0.77941,0.47258 1.55896,0.68219 2.33839,0.63695 0.77932,-0.0452 1.4905,-0.30317 2.13229,-0.76717 0.6877,-0.50704 1.12334,-1.14 1.30669,-1.90243 0.13754,-0.49214 0.22915,-1.00928 0.275,-1.55266 0.0917,-0.53979 0.32095,-0.9761 0.68779,-1.30757 0.2293,-0.2072 0.57313,-0.3807 1.0317,-0.52046 0.82544,-0.24254 1.69623,-0.25164 2.61338,-0.0365 0.91674,0.21501 1.71981,0.59531 2.40729,1.13639 0.73351,0.58907 1.26084,1.30951 1.58169,2.16392 0.36682,0.81416 0.48145,1.65032 0.3439,2.51805 -2.15458,-0.0827 -4.30999,-0.0382 -6.46456,0.14742 -2.1101,0.18854 -4.12629,0.70404 -6.05298,1.57487 -1.92765,0.87128 -3.61984,2.17184 -5.08897,3.91796 -1.42139,1.69826 -2.20083,3.66038 -2.33838,5.83246 -0.22944,2.40879 0.16033,4.30782 1.16889,5.70463 1.00824,1.39636 2.36186,2.38664 4.05788,2.98431 1.74165,0.55167 3.59976,0.75761 5.57067,0.62025 1.97281,-0.1375 3.85076,-0.57281 5.64017,-1.30275 1.78836,-0.77519 3.25534,-1.77422 4.40178,-2.987 0.22926,-0.26957 0.48098,-0.51544 0.75609,-0.73863 0.32089,-0.22291 0.64251,-0.26604 0.9634,-0.12998 0.13755,0.0456 0.25221,0.15812 0.3439,0.3379 0.13756,0.13515 0.2522,0.27034 0.3439,0.40535 0.73369,1.17005 1.67312,2.23193 2.81948,3.18613 1.14656,0.90894 2.43012,1.48149 3.85178,1.71067 1.37751,0.22945 2.74928,-0.001 4.12678,-0.68548 1.37566,-0.68357 2.29196,-1.68045 2.75059,-2.96951 0.27513,-0.88895 0.22959,-1.76838 -0.1372,-2.64256 -0.3666,-0.91733 -0.94023,-1.63405 -1.71949,-2.15882 -0.73287,-0.56706 -1.55992,-0.79212 -2.47619,-0.6726 -0.18337,0.0413 -0.55,0.12404 -0.55,0.12404 -0.18342,-0.002 -0.34413,-0.0473 -0.4817,-0.1355 -0.0458,-5.2e-4 -0.0913,-0.0229 -0.13719,-0.0667 -0.13758,-0.13157 -0.25219,-0.37136 -0.3439,-0.71839 -0.27511,-1.38664 -0.38976,-2.78206 -0.3439,-4.18466 0.0459,-1.40249 0.0689,-2.77364 0.0689,-4.11826 0.0458,-1.38479 -0.11489,-2.72844 -0.4817,-4.04495 -0.59563,-2.41447 -1.85756,-4.58868 -3.78288,-6.58174 -1.9232,-1.99087 -4.17505,-3.46215 -6.74018,-4.37151 -1.28369,-0.45509 -2.579,-0.7458 -3.88562,-0.86184 0,0 0,-10e-6 0,-10e-6 z m 5.74293,17.95315 c 0.0459,0.30798 0.0913,0.59394 0.13719,0.85823 0.0459,0.22051 0.0919,0.46309 0.1378,0.72749 -1.28419,0.61909 -3.85178,1.88539 -3.85178,1.88539 -1.23428,0.63702 -2.50214,1.28828 -3.78228,1.94175 -0.36681,0.17432 -0.75683,0.34862 -1.16949,0.52343 -0.36682,0.13014 -0.71074,0.26124 -1.0317,0.39296 -0.64192,-0.10138 -1.23817,-0.20254 -1.78839,-0.30355 -0.55021,-0.101 -1.10038,-0.17938 -1.65059,-0.23525 0.13757,-0.6428 0.36682,-1.14504 0.6878,-1.50576 0.36685,-0.35971 0.77984,-0.67082 1.23839,-0.93379 0.55024,-0.3064 1.10035,-0.63386 1.65059,-0.98188 0.59609,-0.34668 1.2378,-0.68976 1.92559,-1.02838 1.14655,-0.18812 2.33792,-0.4624 3.57618,-0.81911 1.23816,-0.3567 2.54497,-0.52757 3.92069,-0.52153 z"
       transform="matrix(3.9621768,0,0,3.9621768,-477.20709,-674.0955)"
       inkscape:original-d="m 193.30051,172.56372 c -0.744,0 -1.48392,0.0157 -2.21992,0.0478 -4.48,0.256 -8.95984,0.57637 -13.43984,0.96037 -4.48,0.256 -9.02404,0.57578 -13.63204,0.95978 -4.864,0.256 -9.7278,0.57577 -14.5918,0.95977 -4.864,0.384 -9.79201,0.76797 -14.78401,1.15197 -1.792,0.128 -3.64825,0.51197 -5.56825,1.15197 -1.92,0.64 -3.1361,1.8561 -3.6481,3.6481 -0.256,1.024 -0.256,2.04812 0,3.07212 l 1.15197,3.07212 c 0.512,1.024 0.96016,2.04812 1.34416,3.07212 3.2,8.832 4.86427,18.04785 4.99227,27.64785 0.128,9.472 -0.064,18.94404 -0.57598,28.41604 l -0.76818,14.20802 -0.76818,14.20802 c -0.128,2.56 -0.31999,5.11999 -0.57599,7.67999 -0.256,2.56 -0.83195,5.0558 -1.72795,7.4878 -0.512,1.536 -1.08796,3.00828 -1.72796,4.41628 -0.64,1.408 -1.08816,2.81549 -1.34416,4.22349 -0.512,3.328 3.6e-4,5.7602 1.53636,7.2962 1.536,1.536 3.71203,2.49592 6.52803,2.87992 2.816,0.384 5.82355,0.384 9.02355,0 3.328,-0.256 6.40036,-0.63997 9.21636,-1.15197 2.944,-0.64 5.24781,-1.08816 6.91181,-1.34416 2.432,-0.512 4.80001,-1.21574 7.10401,-2.11174 2.432,-1.024 4.03207,-2.68827 4.80007,-4.99227 0.768,-2.048 0.64021,-4.09563 -0.38379,-6.14363 -0.896,-2.176 -1.79233,-4.22424 -2.68833,-6.14424 -2.56,-5.504 -3.90389,-11.32773 -4.03189,-17.47173 -0.128,-6.144 -2.1e-4,-12.22391 0.38379,-18.23991 l 8.83196,4.60788 9.21636,4.22408 c 0.64,0.384 1.34374,0.76797 2.11174,1.15197 0.768,0.256 1.60013,0.3196 2.49613,0.1916 1.792,-0.256 3.0717,-1.34372 3.8397,-3.26372 0.896,-1.92 1.40836,-3.77625 1.53636,-5.56825 0.64,-9.088 -1.5e-4,-18.11187 -1.92015,-27.07187 -0.128,-0.64 -0.31999,-1.28015 -0.57599,-1.92015 -0.256,-0.64 -0.57577,-1.21595 -0.95977,-1.72795 -1.152,-1.28 -2.62428,-1.72756 -4.41628,-1.34356 -1.792,0.384 -3.26368,1.15193 -4.41568,2.30393 -1.152,1.152 -2.11253,2.4959 -2.88053,4.0319 -0.768,1.408 -1.72792,2.75189 -2.87992,4.03189 -1.024,1.152 -2.43148,1.98413 -4.22348,2.49613 -1.664,0.512 -3.13629,0.25582 -4.41629,-0.76818 -1.024,-0.896 -1.59995,-1.98371 -1.72795,-3.26371 -0.128,-1.408 -0.1922,-2.75189 -0.1922,-4.03189 l 0.76818,-14.20802 c 0.384,-4.736 0.70378,-9.40843 0.95978,-14.01643 v -1.53575 c 0.128,-0.512 0.31998,-1.02437 0.57598,-1.53637 0.384,-0.512 0.89636,-0.89596 1.53636,-1.15196 0.64,-0.256 1.27955,-0.44799 1.91955,-0.57599 4.48,-0.896 8.89624,-0.25585 13.24824,1.92015 4.48,2.176 7.74434,5.37614 9.79234,9.60014 0.64,1.408 1.21596,2.87968 1.72796,4.41568 0.512,1.536 1.15154,2.94409 1.91954,4.22409 0.768,1.408 1.79212,2.6241 3.07212,3.6481 1.408,1.024 2.88028,1.53576 4.41628,1.53576 2.944,-0.128 4.99164,-1.72747 6.14364,-4.79947 1.152,-3.2 1.72795,-6.27235 1.72795,-9.21635 v -6.33583 c 0.128,-2.176 0.1922,-4.35203 0.1922,-6.52803 0.128,-2.56 2.1e-4,-5.11999 -0.38379,-7.67999 -0.256,-2.56 -1.21592,-4.80022 -2.87992,-6.72022 -2.048,-2.176 -4.67219,-3.3921 -7.87219,-3.6481 -2.304,-0.288 -4.57224,-0.43154 -6.80424,-0.43154 z m 39.43046,5.06661 c -0.62149,0.0194 -1.24305,0.068 -1.86455,0.14566 -0.93224,0.15537 -1.90323,0.31121 -2.91316,0.46659 -0.93224,0.0777 -1.90324,0.19396 -2.91316,0.34933 -1.1653,0.15538 -2.36946,0.38854 -3.61245,0.69929 -1.1653,0.23306 -2.17525,0.77669 -3.02981,1.63125 -0.93224,0.77686 -1.43752,1.86474 -1.51521,3.2631 -0.0777,1.32068 0.38864,2.29167 1.39856,2.91317 0.31075,0.23306 0.66019,0.42725 1.04862,0.58263 0.38844,0.0777 0.77683,0.23292 1.16527,0.46598 0.85455,0.46612 1.39879,1.24292 1.63185,2.33053 0.23306,1.08762 0.34934,2.1755 0.34934,3.26311 l -0.23329,23.07262 c -0.0777,7.6133 -0.15501,15.26559 -0.23269,22.95657 -0.0777,2.71904 0.11651,5.43843 0.58263,8.15747 0.46612,2.64135 1.43711,5.01069 2.91316,7.10824 1.47605,2.09754 3.72912,3.61217 6.7589,4.54441 1.70911,0.54381 3.4569,0.66069 5.2437,0.34994 1.86448,-0.31074 3.45703,-1.04918 4.77771,-2.21448 1.00993,-0.85456 1.67044,-1.78659 1.98119,-2.79652 0.15537,-0.54381 0.19373,-1.08744 0.11604,-1.63125 -0.0777,-0.93224 -0.38816,-1.86488 -0.93197,-2.79712 -0.5438,-0.93224 -1.04848,-1.86428 -1.5146,-2.79652 -1.55373,-2.71903 -2.64161,-5.63262 -3.26311,-8.74009 -0.5438,-3.18516 -0.89324,-6.33131 -1.04861,-9.43877 -0.15538,-3.57359 -0.15538,-7.1471 0,-10.72069 0.15537,-3.65127 0.31061,-7.26374 0.46598,-10.83733 0.46612,-7.38024 0.93244,-14.72145 1.39856,-22.024 0.15538,-1.24299 0.15538,-2.52506 0,-3.84574 -0.15537,-1.32067 -0.69961,-2.40795 -1.63185,-3.2625 -0.93224,-0.77687 -2.01952,-1.16527 -3.2625,-1.16527 -0.6215,-0.0388 -1.24306,-0.049 -1.86455,-0.0296 z m 51.87063,20.04341 c -3.23371,0 -6.42361,0.43695 -9.56992,1.31092 -4.19509,1.16531 -8.00175,3.06894 -11.41997,5.71029 -4.19508,3.26284 -7.30287,7.18578 -9.32272,11.7693 -1.94217,4.58352 -2.83525,9.36118 -2.67987,14.33313 0.15537,4.89426 1.2816,9.51668 3.37915,13.86714 2.09754,4.27277 5.1274,7.80731 9.08943,10.60404 4.03971,2.79672 8.89529,4.31196 14.56642,4.54502 3.96202,0.23306 7.80704,-0.31118 11.53601,-1.63186 3.80665,-1.39836 7.26387,-3.34035 10.37134,-5.82633 3.18516,-2.56366 5.86559,-5.51561 8.04082,-8.85613 1.63142,-2.48598 2.87393,-5.12745 3.72849,-7.92417 0.93224,-2.71904 1.43752,-5.39947 1.5152,-8.04082 0.0777,-1.78679 -2.3e-4,-3.53458 -0.23329,-5.24369 -0.15537,-1.70911 -0.42689,-3.41794 -0.81532,-5.12705 -0.38844,-1.32067 -0.8158,-2.64171 -1.28192,-3.96239 -0.46612,-1.32067 -1.04872,-2.56318 -1.7479,-3.72848 -1.1653,-1.86448 -2.60261,-3.45704 -4.31172,-4.77771 -1.63142,-1.39836 -3.41817,-2.56416 -5.36034,-3.4964 -3.80665,-1.86448 -7.88544,-2.99072 -12.23589,-3.37915 -1.08762,-0.0971 -2.1701,-0.14566 -3.248,-0.14566 z m 105.21175,1.77691 c -1.86449,-0.0777 -3.53496,0.42759 -5.01101,1.51521 -1.00993,0.69918 -1.7088,1.67017 -2.09723,2.91316 -0.31075,1.24299 -0.31075,2.44714 0,3.61244 0.38843,1.08762 1.16523,1.78649 2.33053,2.09724 0.46612,0.15537 0.93244,0.27226 1.39856,0.34994 0.5438,0 1.00952,0.1942 1.39795,0.58264 0.46612,0.46612 0.62197,1.04871 0.46659,1.74789 -0.0777,0.6215 -0.23353,1.2041 -0.46659,1.7479 l -3.72848,8.62345 c -1.16531,2.79672 -2.3311,5.63179 -3.49641,8.5062 -1.39836,-3.96203 -2.83507,-7.92393 -4.31111,-11.88595 l -4.19508,-11.88595 c -0.46612,-1.32068 -1.08768,-2.60275 -1.86455,-3.84574 -0.69918,-1.24299 -1.70913,-2.01979 -3.02981,-2.33053 -1.86448,-0.54381 -3.49599,4.3e-4 -4.89435,1.63185 -1.39837,1.55374 -2.5246,3.22361 -3.37915,5.0104 -3.80665,8.39017 -7.18656,16.97449 -10.13866,25.75309 -2.40829,-3.72896 -3.92292,-7.88506 -4.54441,-12.46858 -0.54381,-4.58351 -0.11645,-9.01174 1.28191,-13.28451 0.23306,-0.77686 0.42726,-1.55366 0.58263,-2.33053 0.23306,-0.77687 0.23306,-1.55366 0,-2.33053 -0.46612,-1.39836 -1.51503,-2.29143 -3.14646,-2.67987 -1.55373,-0.38843 -3.06836,-0.58323 -4.54441,-0.58323 -2.71904,0.0777 -5.47739,0.19456 -8.27411,0.34994 l -8.15686,0.23329 c -0.69918,0 -1.5539,0.11628 -2.56382,0.34934 -0.93225,0.15537 -1.82532,0.50481 -2.67987,1.04862 -0.77687,0.46612 -1.16527,1.1656 -1.16527,2.09784 0,1.08761 0.3884,1.86441 1.16527,2.33053 0.85455,0.38843 1.78659,0.65995 2.79651,0.81532 1.08762,0.15538 1.9813,0.38854 2.68048,0.69928 0.93224,0.38844 1.67007,1.04896 2.21388,1.9812 0.54381,0.85455 1.01013,1.78658 1.39856,2.79651 3.02978,7.53562 6.05965,15.10998 9.08943,22.72328 l 9.32213,22.60724 c 0.15537,0.46612 0.34957,0.93184 0.58263,1.39796 0.23306,0.38843 0.54354,0.69951 0.93197,0.93257 1.1653,0.69918 2.29214,0.50498 3.37975,-0.58263 1.08762,-1.08762 1.90337,-2.25281 2.44718,-3.4958 l 5.36034,-12.58523 c 1.7868,-4.27277 3.53459,-8.50679 5.2437,-12.70187 2.48597,8.1571 5.749,16.00359 9.78871,23.5392 l 1.16527,1.86455 c 0.46612,0.62149 1.04871,1.08721 1.7479,1.39796 1.00992,0.5438 2.0978,0.58276 3.2631,0.11664 1.24299,-0.5438 2.17502,-1.28164 2.79652,-2.21388 0.69918,-1.00993 1.20385,-2.05884 1.5146,-3.14646 0.31075,-1.1653 0.58287,-2.33049 0.81593,-3.4958 1.1653,-4.81657 2.71889,-9.43899 4.66106,-13.86714 1.94217,-4.50583 4.04,-8.97301 6.29292,-13.40115 2.25291,-4.42815 4.35014,-8.89473 6.29231,-13.40056 0.38843,-0.85455 0.69951,-1.78719 0.93257,-2.79712 0.23306,-1.00993 0.11618,-1.94196 -0.34994,-2.79651 -0.54381,-1.00993 -1.39792,-1.70941 -2.56322,-2.09784 -1.08761,-0.38844 -2.17549,-0.65995 -3.26311,-0.81533 -1.78679,-0.23306 -3.6125,-0.34994 -5.47698,-0.34994 z M 279.9768,210.77633 c 2.72389,0.10196 5.4259,0.79365 8.10609,2.07548 3.65128,1.63142 6.17587,4.19497 7.57423,7.69087 0.93224,2.17523 1.32064,4.46726 1.16526,6.87555 -0.15537,2.40829 -0.50481,4.73868 -1.04862,6.99159 -0.5438,1.7868 -1.24328,3.53459 -2.09784,5.2437 -0.77686,1.63142 -1.94206,2.99081 -3.49579,4.07843 -1.00993,0.69918 -2.13616,1.20446 -3.37915,1.5152 -1.24299,0.23306 -2.4861,0.42726 -3.72909,0.58264 -1.63142,0.15537 -3.30129,0.19433 -5.0104,0.11664 -1.63142,-0.0777 -3.22458,-0.42712 -4.77832,-1.04861 -2.71903,-1.00993 -4.69998,-2.68041 -5.94297,-5.01101 -1.24299,-2.3306 -1.98082,-4.89415 -2.21388,-7.69087 -0.23306,-2.79672 -0.15514,-5.43819 0.23329,-7.92417 0.23306,-1.32067 0.54354,-2.64111 0.93197,-3.96178 0.38844,-1.39836 0.89372,-2.68044 1.51521,-3.84574 0.93224,-1.63142 2.09743,-2.87454 3.4958,-3.72909 0.85455,-0.62149 1.78658,-1.04885 2.79651,-1.28191 1.00993,-0.31075 2.05885,-0.50495 3.14646,-0.58264 0.91282,-0.0971 1.82328,-0.12827 2.73124,-0.0943 z m 32.37903,50.23817 c -0.77948,0 -1.53647,0.11464 -2.27009,0.3439 -0.73363,0.22926 -1.37537,0.59623 -1.92559,1.10059 -0.32096,0.32097 -0.59634,0.66489 -0.8256,1.0317 -0.22926,0.32096 -0.45854,0.66428 -0.6878,1.03109 -0.22925,0.50437 -0.43549,1.00903 -0.61889,1.51339 -0.18341,0.50437 -0.29805,1.03148 -0.3439,1.5817 -0.0459,1.14628 0.25258,2.13195 0.8945,2.95728 0.64192,0.82533 1.46685,1.49073 2.47558,1.99509 1.05459,0.45852 2.1555,0.77939 3.30179,0.9628 1.14629,0.13755 2.15501,0.13755 3.02619,0 0.55021,-0.0917 1.03122,-0.22939 1.44388,-0.4128 0.0459,-0.0458 0.115,-0.0919 0.20671,-0.1378 0.32096,-0.13756 0.59573,-0.32074 0.82499,-0.55 0.22926,-0.22926 0.43549,-0.48159 0.6189,-0.75669 1.14628,-1.46725 1.83413,-3.11772 2.06339,-4.95178 0.0917,-0.68777 0.0693,-1.37562 -0.0683,-2.06339 -0.0917,-0.73362 -0.39013,-1.35232 -0.8945,-1.85669 -0.36681,-0.32096 -0.80232,-0.55024 -1.30669,-0.68779 -0.45852,-0.18341 -0.91708,-0.34415 -1.37559,-0.4817 -0.73363,-0.13756 -1.49002,-0.27525 -2.26949,-0.4128 -0.73363,-0.18341 -1.49001,-0.25195 -2.26949,-0.2061 z m 21.87109,1.22087 c -0.36681,0.0115 -0.73378,0.04 -1.1006,0.0858 -0.55021,0.0917 -1.12342,0.1833 -1.71949,0.275 -0.55022,0.0459 -1.12342,0.115 -1.71949,0.2067 -0.68777,0.0917 -1.39867,0.22879 -2.13229,0.4122 -0.68777,0.13755 -1.28342,0.45842 -1.78779,0.96279 -0.55022,0.45852 -0.84864,1.10087 -0.8945,1.9262 -0.0459,0.77947 0.22953,1.35267 0.8256,1.71949 0.18341,0.13755 0.38964,0.25219 0.6189,0.3439 0.22926,0.0459 0.45854,0.13744 0.68779,0.27499 0.50437,0.27511 0.82524,0.73368 0.9628,1.3756 0.13755,0.64192 0.2067,1.28366 0.2067,1.92559 l -0.1378,13.61813 c -0.0458,4.49345 -0.0919,9.00932 -0.1378,13.54863 -0.0459,1.6048 0.0688,3.20977 0.3439,4.81457 0.27511,1.55896 0.84831,2.95769 1.71949,4.19569 0.87118,1.23799 2.20077,2.13206 3.98898,2.68228 1.00873,0.32096 2.0405,0.3895 3.09508,0.2061 1.10044,-0.18341 2.04061,-0.61892 2.82009,-1.30669 0.59607,-0.50437 0.98549,-1.05453 1.16889,-1.6506 0.0917,-0.32096 0.11475,-0.64183 0.0689,-0.96279 -0.0459,-0.55022 -0.22903,-1.10037 -0.54999,-1.65059 -0.32096,-0.55022 -0.61879,-1.10037 -0.8939,-1.65059 -0.91703,-1.60481 -1.55938,-3.32442 -1.92619,-5.15848 -0.32096,-1.87991 -0.52719,-3.73721 -0.6189,-5.57127 -0.0917,-2.10917 -0.0917,-4.2182 0,-6.32737 0.0917,-2.15502 0.1833,-4.2871 0.275,-6.39627 0.27511,-4.35589 0.55049,-8.68859 0.8256,-12.99863 0.0917,-0.73362 0.0917,-1.49062 0,-2.27009 -0.0917,-0.77948 -0.41258,-1.42122 -0.9628,-1.92559 -0.55021,-0.45852 -1.19256,-0.6878 -1.92619,-0.6878 -0.36681,-0.0229 -0.73318,-0.0284 -1.09999,-0.0169 z m -125.70785,2.18366 c -4.16102,0.0229 -8.3166,0.17154 -12.46616,0.44665 -0.77948,0.0459 -1.53586,0.13805 -2.26949,0.2756 -0.73362,0.0917 -1.44451,0.32099 -2.13229,0.6878 -1.05458,0.59607 -1.85707,1.44405 -2.40729,2.54448 -0.50436,1.10044 -0.80219,2.31539 -0.89389,3.64508 -0.0917,1.28385 -0.0687,2.54489 0.0689,3.78289 0.0917,0.73362 0.22939,1.44451 0.4128,2.13229 0.22926,0.68777 0.64172,1.23792 1.23779,1.65059 0.68777,0.50436 1.46721,0.64205 2.33839,0.4128 0.91703,-0.22926 1.67342,-0.64233 2.26949,-1.2384 0.64192,-0.55022 1.16963,-1.19196 1.58229,-1.92559 0.41267,-0.77948 0.84818,-1.53586 1.30669,-2.26949 0.41267,-0.73362 0.93977,-1.39842 1.5817,-1.99449 0.64192,-0.64192 1.37586,-1.03194 2.20119,-1.16949 0.45851,-0.0917 0.77939,-0.0232 0.96279,0.20609 0.0917,0.13756 0.1372,0.3444 0.1372,0.61951 0.1834,4.35589 0.36719,8.68858 0.5506,12.99863 0.22926,4.31004 0.43549,8.62029 0.61889,12.93033 0.0459,1.14629 0.0228,2.2927 -0.0689,3.43899 -0.0459,1.14629 -0.36672,2.2005 -0.96279,3.16338 -0.77948,1.19214 -1.30658,2.29245 -1.58169,3.30118 -0.27511,0.96288 -0.13803,1.74232 0.41219,2.33839 0.55022,0.59607 1.74273,0.8945 3.57679,0.8945 3.34716,0.0458 6.62564,-0.43576 9.83525,-1.4445 0.45851,-0.1834 0.91708,-0.38963 1.37559,-0.61889 0.45852,-0.22926 0.80244,-0.55013 1.0317,-0.9628 0.13755,-0.22925 0.22914,-0.50463 0.275,-0.82559 0.0459,-0.32097 -2.5e-4,-0.64184 -0.13781,-0.9628 l -0.41279,-0.96279 c -1.65066,-3.43887 -2.63633,-7.08432 -2.95729,-10.93585 -0.27511,-3.89738 -0.43524,-7.77151 -0.48109,-11.62304 v -4.12678 -4.12678 c 0,-0.50437 0.0224,-1.00842 0.0683,-1.51279 0.0917,-0.50437 0.32099,-0.91744 0.6878,-1.2384 0.50437,-0.41266 1.07757,-0.5273 1.71949,-0.3439 0.68777,0.13756 1.23793,0.43599 1.65059,0.8945 0.45852,0.45852 0.80244,1.00867 1.0317,1.65059 0.22925,0.59607 0.45854,1.16928 0.68779,1.7195 0.55022,1.23799 1.42125,2.2922 2.61339,3.16338 1.23799,0.87118 2.49904,1.07801 3.78288,0.6195 0.68777,-0.27511 1.26098,-0.73367 1.71949,-1.3756 0.45852,-0.64192 0.77939,-1.32976 0.9628,-2.06339 0.1834,-0.73362 0.25255,-1.46756 0.2067,-2.20119 0,-0.77947 -0.0231,-1.53586 -0.0689,-2.26948 -0.0459,-0.87118 -0.16049,-1.74221 -0.3439,-2.61339 -0.18341,-0.87118 -0.55038,-1.62757 -1.10059,-2.26949 -0.73363,-0.87118 -1.6738,-1.42194 -2.82009,-1.65119 -1.10044,-0.27511 -2.20075,-0.43525 -3.30118,-0.4811 -4.17249,-0.22926 -8.33899,-0.33237 -12.50002,-0.30945 z m 153.66576,7.99972 c -1.71943,0.11176 -3.33593,0.59747 -4.84903,1.45719 -1.10044,0.59607 -2.0861,1.35245 -2.95728,2.26948 -1.10044,1.238 -1.94842,2.65918 -2.54449,4.26398 -0.59607,1.6048 -0.82535,3.25587 -0.68779,4.95238 0.1834,2.29258 1.00833,4.4016 2.47558,6.32737 1.5131,1.87991 3.34735,3.18645 5.50237,3.92007 0.96289,0.32097 1.94855,0.5733 2.95729,0.7567 1.05458,0.13756 2.04025,0.41294 2.95728,0.8256 0.96288,0.41266 1.78842,1.05441 2.47619,1.92559 0.68777,0.82533 0.96315,1.74245 0.8256,2.75119 -0.18341,1.28384 -0.91735,2.22341 -2.20119,2.81948 -1.28385,0.55022 -2.56734,0.8256 -3.85118,0.8256 -0.41266,0 -0.82573,-0.0231 -1.2384,-0.0689 -0.41266,-0.0917 -0.80208,-0.2294 -1.16889,-0.4128 -0.68777,-0.41267 -1.16938,-0.98587 -1.44449,-1.71949 -0.27511,-0.77948 -0.4583,-1.60441 -0.55,-2.47559 -0.0917,-0.91703 -0.27549,-1.76561 -0.5506,-2.54509 -0.32096,-1.05458 -0.93966,-1.94866 -1.85669,-2.68229 -0.91703,-0.73362 -1.94879,-1.21463 -3.09508,-1.44388 -1.10044,-0.22926 -2.1777,-0.13767 -3.23228,0.27499 -1.28385,0.50437 -2.24707,1.30685 -2.88899,2.40729 -0.59607,1.10044 -0.91694,2.31539 -0.9628,3.64508 -0.0458,1.28385 0.20648,2.49879 0.7567,3.64508 0.82533,1.87992 2.20041,3.39329 4.12618,4.53958 1.92576,1.10044 3.8516,1.81073 5.77737,2.13169 2.24672,0.41266 4.51649,0.43571 6.80907,0.0689 2.29257,-0.41266 4.51624,-0.96282 6.67126,-1.65059 1.83406,-0.59607 3.62221,-1.39856 5.36457,-2.40729 1.74236,-1.05459 2.93487,-2.49882 3.57679,-4.33288 0.50436,-1.28384 0.59596,-2.63648 0.275,-4.05788 -0.27511,-1.4214 -0.84832,-2.68244 -1.7195,-3.78288 -0.82532,-1.10044 -1.85709,-2.01756 -3.09508,-2.75119 -1.23799,-0.73362 -2.52148,-1.28378 -3.85118,-1.65059 -0.96288,-0.27511 -1.94915,-0.50439 -2.95789,-0.68779 -1.00873,-0.22926 -1.9483,-0.61868 -2.81948,-1.1689 -0.82533,-0.55021 -1.46707,-1.32965 -1.92559,-2.33838 -0.41266,-1.05459 -0.36717,-2.01781 0.1372,-2.88899 0.27511,-0.36681 0.59598,-0.66464 0.96279,-0.8939 0.36681,-0.27511 0.75683,-0.48134 1.1695,-0.61889 1.10043,-0.36681 2.24684,-0.43596 3.43898,-0.2067 1.19214,0.22925 2.2694,0.71087 3.23228,1.44449 0.96289,0.68777 1.67378,1.5588 2.13229,2.61339 l 0.4128,0.96279 c 0.18341,0.27511 0.43513,0.4589 0.7561,0.5506 0.45851,0.0917 0.82548,-0.0921 1.10059,-0.5506 0.27511,-0.50437 0.43585,-1.00842 0.4817,-1.51279 0.36681,-2.98035 0.38926,-5.96101 0.0683,-8.94136 0,-0.32096 -0.0455,-0.61878 -0.1372,-0.89389 -0.0459,-0.32096 -0.16049,-0.61879 -0.3439,-0.8939 -0.1834,-0.22925 -0.43573,-0.38999 -0.7567,-0.48169 -0.32096,-0.13756 -0.61878,-0.11451 -0.89389,0.0689 -0.22926,0.1834 -0.41305,0.43573 -0.5506,0.75669 -0.0917,0.27511 -0.25184,0.50439 -0.48109,0.6878 -0.36682,0.32096 -0.80233,0.36645 -1.3067,0.1372 -0.50436,-0.22926 -0.93988,-0.48159 -1.30669,-0.7567 -1.87991,-1.3297 -4.03504,-2.06303 -6.46517,-2.20059 -0.59607,-0.0459 -1.1808,-0.0499 -1.75394,-0.0127 z m -48.45401,3.10778 c -0.55022,0 -1.12282,0.0231 -1.71889,0.0689 -1.69651,0.1834 -3.41611,0.43513 -5.15847,0.75609 -0.36682,0.0459 -0.73379,0.13805 -1.1006,0.2756 -0.32096,0.0917 -0.59573,0.25184 -0.82499,0.4811 -0.22926,0.27511 -0.36695,0.59598 -0.4128,0.96279 -0.0458,0.59607 0.11428,1.12378 0.48109,1.5823 0.22926,0.36681 0.55074,0.66463 0.9634,0.89389 0.41267,0.22926 0.82513,0.43549 1.23779,0.6189 0.18341,0.0459 0.36659,0.11439 0.55,0.2061 0.18341,0.0917 0.3211,0.22939 0.4128,0.41279 0.0917,0.13756 0.1378,0.36684 0.1378,0.6878 0.18341,2.10917 0.18341,4.2182 0,6.32737 -0.13755,2.10917 -0.25219,4.24185 -0.3439,6.39687 0,1.32969 0.0224,2.81942 0.0683,4.47007 0.0917,1.60481 0.34403,3.16368 0.7567,4.67678 0.45851,1.5131 1.14635,2.8433 2.06339,3.98958 0.91703,1.14629 2.17807,1.94817 3.78288,2.40669 0.87118,0.22926 1.7883,0.2523 2.75118,0.0689 0.96289,-0.18341 1.76537,-0.59587 2.40729,-1.23779 0.27511,-0.27511 0.50439,-0.59599 0.6878,-0.9628 0.18341,-0.41266 0.275,-0.80268 0.275,-1.16949 -0.0917,-0.68778 -0.41258,-1.26098 -0.9628,-1.7195 -0.50436,-0.45851 -0.98598,-0.93952 -1.44449,-1.44389 -0.87118,-0.87117 -1.44438,-1.92599 -1.71949,-3.16398 -0.27511,-1.23799 -0.43585,-2.45294 -0.4817,-3.64508 -0.32096,-4.81441 -0.0456,-9.60627 0.8256,-14.37483 l 0.27499,-1.92559 c 0.13756,-0.68778 0.16061,-1.35257 0.0689,-1.99449 -0.0917,-0.68777 -0.29793,-1.32952 -0.61889,-1.92559 -0.32096,-0.59607 -0.77953,-1.05463 -1.3756,-1.37559 -0.50436,-0.22926 -1.03207,-0.3439 -1.58229,-0.3439 z m -74.27902,0.85944 c -0.48145,-0.0229 -0.96306,-0.0114 -1.4445,0.0344 -0.91703,0.0459 -1.8572,0.115 -2.82009,0.2067 -0.50436,0.0459 -1.03147,0.20599 -1.58169,0.4811 -0.55022,0.22926 -0.82499,0.59623 -0.82499,1.10059 0,0.64193 0.29782,1.10049 0.89389,1.3756 0.64193,0.22926 1.21513,0.52708 1.7195,0.89389 0.0917,0.0459 0.18329,0.115 0.27499,0.2067 0.55022,0.50437 0.89414,1.14612 1.0317,1.92559 0.13755,0.77948 0.22914,1.53586 0.275,2.26949 0.22925,6.0524 0.2523,12.12775 0.0689,18.22601 0,0.36681 -0.0461,0.75683 -0.1378,1.16949 -0.0459,0.41267 -0.1605,0.80208 -0.3439,1.1689 -0.32096,0.45851 -0.73343,0.91707 -1.23779,1.37559 -0.45852,0.45851 -0.84854,0.91708 -1.1695,1.37559 -0.27511,0.41267 -0.34365,0.82513 -0.2061,1.2378 0.18341,0.41266 0.75661,0.80268 1.71949,1.16949 0.91703,0.36681 1.9488,0.5045 3.09509,0.4128 1.19214,-0.0459 2.36099,-0.18354 3.50728,-0.4128 1.14629,-0.22926 2.2011,-0.45854 3.16398,-0.6878 0.45852,-0.0917 0.91708,-0.20634 1.3756,-0.34389 0.45851,-0.18341 0.80244,-0.48123 1.03169,-0.8939 0.27511,-0.50436 0.32061,-1.03207 0.1372,-1.58229 -0.18341,-0.55022 -0.38964,-1.07733 -0.6189,-1.58169 -1.05458,-2.29258 -1.65023,-4.70003 -1.78778,-7.22187 -0.13756,-2.56769 -0.16061,-5.11222 -0.0689,-7.63406 0,-0.68777 0.023,-1.37562 0.0689,-2.06339 0.0917,-0.68777 0.25183,-1.32952 0.48109,-1.92559 0.27511,-0.64192 0.68757,-1.19207 1.23779,-1.65059 0.55022,-0.50437 1.16952,-0.77975 1.8573,-0.8256 0.22925,1.05459 0.50463,2.1094 0.82559,3.16399 0.32096,1.00873 0.77892,1.97135 1.37499,2.88838 0.59607,0.87118 1.35306,1.60512 2.27009,2.20119 0.96289,0.59607 1.99465,0.8478 3.09509,0.7561 1.5131,-0.13756 2.7511,-0.89394 3.71398,-2.26949 0.96288,-1.37555 1.58158,-2.81978 1.85669,-4.33288 0.13755,-0.73362 0.2061,-1.46696 0.2061,-2.20059 0.0458,-0.77947 -0.0688,-1.51341 -0.3439,-2.20119 -0.59607,-1.5131 -1.69638,-2.59036 -3.30118,-3.23228 -1.55896,-0.64192 -3.14088,-1.05499 -4.74568,-1.2384 -1.5131,-0.1834 -3.09502,-0.16035 -4.74568,0.0689 -1.6048,0.1834 -2.93439,0.8482 -3.98898,1.99448 -0.41266,-0.87117 -1.03136,-1.58207 -1.85668,-2.13229 -0.82533,-0.55021 -1.69696,-0.91658 -2.61399,-1.09999 -0.48145,-0.0917 -0.96245,-0.14932 -1.44389,-0.17225 z m 41.85104,0.0344 c -1.30677,0.0459 -2.62544,0.27513 -3.95514,0.6878 -2.65939,0.82533 -4.86,2.24651 -6.60236,4.26398 -0.82533,0.91703 -1.44403,2.01794 -1.85669,3.30178 -0.41266,1.28385 -0.34412,2.47575 0.2061,3.57618 0.36681,0.68778 0.91696,1.23793 1.65059,1.65059 0.77947,0.41267 1.55891,0.57341 2.33839,0.4817 0.77947,-0.0917 1.49036,-0.39013 2.13229,-0.8945 0.68777,-0.55021 1.12328,-1.21501 1.30669,-1.99448 0.13755,-0.50437 0.22915,-1.03148 0.275,-1.5817 0.0917,-0.55021 0.32098,-1.00878 0.68779,-1.37559 0.22926,-0.22926 0.57318,-0.43549 1.0317,-0.6189 0.82533,-0.32096 1.69635,-0.41255 2.61338,-0.27499 0.91704,0.13755 1.71952,0.45842 2.40729,0.96279 0.73363,0.55022 1.26073,1.26111 1.58169,2.13229 0.36682,0.82533 0.48146,1.69636 0.3439,2.61339 -2.15502,0.0459 -4.30954,0.22903 -6.46456,0.54999 -2.10917,0.32096 -4.12721,0.96271 -6.05298,1.92559 -1.92576,0.96289 -3.62172,2.31552 -5.08897,4.05788 -1.42139,1.69651 -2.20083,3.59991 -2.33838,5.70908 -0.22926,2.33843 0.16015,4.19512 1.16889,5.57067 1.00873,1.37554 2.36137,2.36121 4.05788,2.95728 1.74236,0.55022 3.59905,0.75645 5.57067,0.6189 1.97161,-0.13756 3.85196,-0.57307 5.64017,-1.30669 1.78821,-0.77948 3.25549,-1.7882 4.40178,-3.02619 0.22926,-0.27511 0.48098,-0.52683 0.75609,-0.75609 0.32096,-0.22926 0.64244,-0.27536 0.9634,-0.1378 0.13756,0.0459 0.2522,0.16049 0.3439,0.3439 0.13756,0.13755 0.2522,0.27524 0.3439,0.41279 0.73362,1.19214 1.67319,2.2694 2.81948,3.23229 1.14629,0.91703 2.43039,1.49023 3.85178,1.71949 1.37555,0.22926 2.75124,-3e-5 4.12678,-0.6878 1.37555,-0.68777 2.29207,-1.69649 2.75059,-3.02618 0.27511,-0.91703 0.22961,-1.83416 -0.1372,-2.75119 -0.36681,-0.96288 -0.94002,-1.71927 -1.71949,-2.26949 -0.73363,-0.59607 -1.55916,-0.82535 -2.47619,-0.68779 l -0.55,0.1378 c -0.1834,0 -0.34414,-0.0461 -0.4817,-0.1378 -0.0458,0 -0.0913,-0.0231 -0.13719,-0.0689 -0.13756,-0.13755 -0.2522,-0.38988 -0.3439,-0.75669 -0.27511,-1.46725 -0.38975,-2.95698 -0.3439,-4.47008 0.0459,-1.5131 0.0689,-3.00343 0.0689,-4.47068 0.0458,-1.5131 -0.11489,-2.98038 -0.4817,-4.40177 -0.59607,-2.61354 -1.85711,-4.90635 -3.78288,-6.87797 -1.92576,-1.97162 -4.17248,-3.27816 -6.74017,-3.92008 -1.28384,-0.32096 -2.57886,-0.45865 -3.88562,-0.4128 z m 5.74292,18.22601 c 0.0459,0.32096 0.0913,0.61879 0.13719,0.89389 0.0459,0.22926 0.0919,0.48159 0.1378,0.7567 l -3.85178,2.06339 c -1.23799,0.68777 -2.49843,1.37562 -3.78228,2.06339 -0.36681,0.18341 -0.75683,0.36659 -1.16949,0.55 -0.36681,0.13755 -0.71074,0.27524 -1.0317,0.4128 -0.64192,-0.0917 -1.23817,-0.1833 -1.78839,-0.275 -0.55022,-0.0917 -1.10037,-0.16025 -1.65059,-0.2061 0.13755,-0.64192 0.36684,-1.14658 0.6878,-1.51339 0.36681,-0.36682 0.77988,-0.68769 1.23839,-0.9628 0.55022,-0.32096 1.10038,-0.66488 1.65059,-1.03169 0.59607,-0.36682 1.23782,-0.73379 1.92559,-1.1006 1.14629,-0.22926 2.33819,-0.55013 3.57618,-0.96279 1.238,-0.41267 2.54514,-0.64195 3.92069,-0.6878 z"
       inkscape:path-effect="#path-effect4" />
  </g>
</svg>
