<svg version="1.0" xmlns="http://www.w3.org/2000/svg" width="2160.000000pt" height="2160.000000pt" viewBox="0 0 2160.000000 2160.000000" preserveAspectRatio="xMidYMid meet">

<g transform="translate(0.000000,2160.000000) scale(0.100000,-0.100000)" fill="#a3d39a" stroke="none">
<path d="M7970 21190 c-300 -29 -565 -134 -845 -334 -38 -28 -137 -104 -220 -171 -216 -173 -335 -258 -495 -353 -516 -302 -1071 -482 -1710 -554 -150 -16 -649 -16 -800 0 -125 14 -386 57 -600 98 -108 21 -165 26 -285 26 -456 0 -865 -177 -1193 -516 -171 -178 -292 -374 -368 -601 -167 -499 -94 -1008 207 -1461 87 -130 284 -332 400 -411 206 -140 438 -236 679 -279 144 -25 413 -23 550 5 365 76 573 177 865 423 445 374 894 621 1435 791 417 131 802 189 1250 190 341 0 548 -20 882 -88 307 -63 485 -66 743 -14 628 127 1115 612 1271 1269 38 159 44 427 15 602 -48 279 -135 490 -289 698 -88 118 -140 176 -237 262 -228 201 -513 344 -797 398 -118 23 -329 32 -458 20z m378 -850 c275 -78 482 -288 567 -576 34 -113 38 -267 11 -389 -22 -100 -99 -261 -163 -340 -107 -132 -263 -232 -428 -276 -118 -32 -300 -32 -415 -1 -296 81 -510 296 -587 591 -117 446 165 903 617 1002 111 25 291 20 398 -11z m-5158 -1284 c81 -19 198 -69 266 -111 76 -49 220 -195 263 -268 19 -32 50 -104 70 -160 36 -101 36 -103 35 -262 0 -146 -2 -167 -27 -240 -92 -274 -300 -473 -572 -547 -106 -29 -308 -31 -404 -5 -165 45 -266 103 -381 217 -100 100 -156 189 -202 320 -32 92 -33 100 -33 255 0 171 9 214 68 345 101 222 306 391 545 450 93 22 290 26 372 6z" fill="#a3d39a"/>
<path d="M10340 21194 c-151 -7 -597 -36 -654 -42 l-59 -7 94 -81 c370 -318 596 -751 659 -1264 30 -248 -2 -552 -85 -808 -58 -176 -203 -441 -322 -589 l-33 -42 32 5 c201 27 932 42 1273 25 1521 -75 3487 -470 5405 -1088 383 -124 1026 -353 1103 -395 21 -11 21 44 -4 -948 -88 -3558 -400 -6380 -835 -7570 -107 -291 -335 -683 -622 -1070 -442 -595 -1108 -1295 -1857 -1951 -1075 -942 -2386 -1841 -3255 -2231 -154 -69 -331 -138 -355 -138 -8 0 -15 -3 -15 -6 0 -3 23 -40 51 -82 72 -109 161 -299 198 -422 55 -186 66 -272 66 -515 0 -240 -8 -297 -66 -501 -133 -463 -466 -902 -868 -1143 l-82 -50 38 -10 c97 -28 351 -71 478 -82 430 -37 896 58 1495 304 1149 472 2797 1572 4190 2796 435 382 1109 1040 1431 1396 828 915 1406 1767 1725 2547 307 750 546 1832 728 3303 222 1785 368 4413 370 6640 1 754 0 816 -18 895 -86 392 -315 717 -651 920 -829 501 -2814 1184 -4755 1634 -1290 299 -2394 472 -3520 552 -210 14 -1085 27 -1280 18z" fill="#a3d39a"/>
<path d="M2271 15979 c-212 -16 -397 -70 -601 -175 -434 -223 -769 -655 -864 -1114 -39 -187 -47 -403 -21 -572 41 -274 125 -478 345 -843 399 -661 590 -1349 590 -2135 0 -483 -68 -871 -246 -1407 -109 -330 -118 -378 -119 -623 0 -226 15 -325 76 -513 108 -332 319 -626 598 -833 102 -77 329 -192 459 -234 182 -58 279 -74 477 -74 292 -1 509 47 760 169 354 173 629 463 785 830 101 238 145 515 121 765 -32 337 -101 536 -295 844 -218 348 -356 646 -464 1006 -127 419 -177 773 -176 1235 1 519 61 869 239 1400 107 319 120 384 120 635 0 292 -40 472 -154 705 -81 164 -163 283 -282 408 -291 308 -655 489 -1054 527 -120 11 -141 11 -294 -1z m358 -849 c273 -77 480 -278 573 -555 20 -62 23 -89 23 -230 0 -140 -3 -169 -23 -235 -119 -379 -456 -612 -847 -587 -363 23 -681 303 -745 656 -18 102 -14 265 9 356 28 106 97 245 164 325 127 154 264 234 487 285 89 20 261 13 359 -15z m575 -5240 c246 -65 468 -263 557 -499 73 -193 62 -468 -28 -644 -91 -181 -218 -308 -388 -388 -105 -49 -186 -69 -309 -76 -280 -15 -556 121 -713 353 -54 80 -76 124 -109 224 -25 77 -28 99 -28 235 -1 131 2 160 22 225 87 274 289 481 547 559 149 45 304 49 449 11z" fill="#a3d39a"/>
<path d="M4725 7234 c-211 -30 -367 -75 -535 -155 -201 -96 -394 -248 -543 -427 -396 -476 -487 -1172 -226 -1740 158 -344 433 -621 780 -786 146 -69 239 -103 470 -171 290 -85 463 -152 692 -266 381 -192 742 -455 1067 -779 400 -399 669 -807 934 -1415 87 -200 161 -320 279 -455 306 -348 779 -560 1252 -560 323 0 662 108 929 294 119 84 198 157 297 274 303 361 445 796 399 1230 -43 406 -205 741 -491 1017 -136 130 -257 221 -388 288 -148 77 -207 99 -426 162 -323 92 -514 164 -760 287 -905 454 -1600 1203 -1999 2152 -113 268 -196 395 -376 577 -201 202 -379 315 -630 399 -176 59 -264 72 -490 75 -113 2 -218 1 -235 -1z m347 -828 c156 -30 285 -96 400 -204 172 -163 262 -370 261 -602 -4 -643 -692 -1027 -1246 -696 -109 65 -243 210 -301 325 -56 110 -78 198 -83 336 -6 156 10 254 62 363 127 268 346 438 625 485 58 10 214 6 282 -7z m4063 -3503 c322 -110 539 -394 562 -733 31 -459 -351 -862 -815 -860 -212 1 -398 74 -551 216 -178 164 -262 355 -263 594 -2 313 161 589 430 728 147 76 221 92 407 88 127 -2 149 -5 230 -33z" fill="#a3d39a"/>
</g>
</svg>